<svg xmlns="http://www.w3.org/2000/svg" viewBox="0 0 79.39 77.6"><defs><style>.cls-1{fill:#fff;}</style></defs><title>Asset 1</title><g id="Layer_2" data-name="Layer 2"><g id="Layer_1-2" data-name="Layer 1"><path class="cls-1" d="M12.69,68.42c-4.45-9.91,6-18.18,14.55-20,11.26-2.35,22.75,3,33.93-.63A26.69,26.69,0,0,0,78.91,28.09C81,17.44,76.26,7.52,67.8,1.16c-6.18-4.64-12.17,5.78-6.06,10.37a14.31,14.31,0,0,1-.22,22.85C52.92,40.72,40,35.17,30.17,36c-9.27.78-18.58,4.34-24.48,11.83A25.4,25.4,0,0,0,2.33,74.48c3.16,7,13.5.94,10.36-6.06Z"/></g></g></svg>